<svg width="66" height="48" viewBox="0 0 66 48" fill="none" xmlns="http://www.w3.org/2000/svg">
<path d="M0.0119822 9.71972C0.0119822 6.70026 0.023964 3.69279 0 0.67333C0 0.134141 0.167748 -0.0216247 0.682973 0.00233922C1.98901 0.0502671 1.82126 -0.129462 1.83324 1.16459C1.83324 3.47711 1.83324 5.80162 1.83324 8.11414C1.83324 8.36576 1.71342 8.68927 1.97703 8.83306C2.26459 8.98882 2.42036 8.65333 2.61207 8.49756C3.51072 7.7427 4.5172 7.15558 5.67946 6.96387C8.33945 6.53252 9.74135 4.90297 10.0409 2.18306C10.1008 1.65585 10.2925 1.52405 10.7958 1.53603C12.0299 1.56 12.0419 1.57198 11.8382 2.78216C11.6105 4.08819 11.0833 5.25045 10.2446 6.26891C9.77729 6.83207 9.84918 7.1436 10.5082 7.47909C13.3479 8.95288 14.6659 11.3133 14.6659 14.4646C14.6659 15.8785 14.654 17.3043 14.6779 18.7182C14.6899 19.2094 14.5701 19.4371 14.0189 19.4251C12.7129 19.3772 12.8567 19.5809 12.8327 18.2389C12.7967 16.6094 12.9645 14.9678 12.7488 13.3383C12.3654 10.4986 9.89711 8.50954 6.98549 8.62936C4.30153 8.7372 1.98901 11.0258 1.86919 13.7936C1.7973 15.4471 1.82126 17.1126 1.84522 18.7661C1.85721 19.2933 1.70144 19.473 1.16225 19.4491C-0.143784 19.4012 0.0119822 19.6049 0.0119822 18.2988C0.0119822 15.4351 0.0119822 12.5714 0.0119822 9.71972Z" fill="black"/>
<path d="M41.4821 33.6352C40.9429 32.3292 39.7447 31.8259 38.4507 32.3771C37.6119 32.7365 36.929 33.3237 36.3538 34.0306C35.5391 35.0131 34.892 36.1155 34.281 37.2418C34.2091 37.3855 34.1252 37.5293 34.0533 37.6611C34.0054 37.745 33.9455 37.8528 33.8376 37.8289C33.6819 37.781 33.7178 37.6491 33.7418 37.5293C33.7657 37.3736 33.8137 37.2178 33.8496 37.062C34.7003 33.3955 35.551 29.7291 36.4018 26.0626C36.4497 25.8349 36.5815 25.5833 36.3419 25.4036C36.1022 25.2358 35.8865 25.4156 35.6948 25.5593C35.1077 26.0027 34.4247 26.2064 33.7178 26.3741C33.2984 26.47 32.8551 26.5419 32.4357 26.6377C32.232 26.6856 32.0403 26.7935 32.0403 27.0211C32.0403 27.2847 32.244 27.3207 32.4477 27.3446C32.6874 27.3686 32.927 27.4046 33.1666 27.4285C33.9455 27.5124 34.0533 27.6562 33.8736 28.435C32.7952 33.084 31.7048 37.745 30.6265 42.394C30.4108 43.3526 30.2191 44.2991 30.3509 45.2936C30.5665 46.9112 31.7408 47.9417 33.3583 47.9536C34.5805 47.9656 35.611 47.4624 36.5216 46.7195C39.9484 43.9397 41.554 40.2373 41.8775 35.9237C41.8536 35.1449 41.7817 34.3661 41.4821 33.6352ZM39.6848 35.9956C39.5051 39.5782 38.3069 42.7894 36.0423 45.5812C35.587 46.1444 35.0598 46.6356 34.4128 46.9711C33.1786 47.5942 32.268 47.0909 32.1721 45.713C32.1002 44.7065 32.3159 43.736 32.6035 42.7774C33.3823 40.1773 34.6045 37.7929 36.222 35.6242C36.6774 35.0131 37.1686 34.438 37.8276 34.0306C38.8101 33.4315 39.565 33.791 39.6848 34.9173C39.7208 35.2647 39.6848 35.6362 39.6848 35.9956Z" fill="black"/>
<path d="M28.3967 42.1309C28.217 42.059 28.0732 42.1429 27.9894 42.2867C27.9055 42.4185 27.8695 42.5863 27.8216 42.73C27.534 43.6167 27.2465 44.5153 26.7672 45.3301C26.5515 45.6896 26.2999 46.0251 25.8805 46.1808C25.3174 46.3965 24.874 46.1449 24.8141 45.5338C24.7782 45.1744 24.8021 44.8149 24.886 44.4674C25.7607 40.7051 26.6234 36.9427 27.4981 33.1804C27.558 32.9168 27.7497 32.5933 27.4621 32.4136C27.1267 32.2218 26.8631 32.4974 26.6474 32.7371C26.5635 32.8209 26.4916 32.9168 26.4197 33.0246C26.1561 33.432 25.9045 33.4799 25.593 33.0606C25.0298 32.3057 24.251 32.114 23.3643 32.1859C21.9864 32.3177 20.8721 33.0246 19.9255 33.9592C17.0378 36.751 15.6 40.2018 15.3604 44.06C15.4083 45.0665 15.4083 45.9532 15.8276 46.768C16.1631 47.403 16.6304 47.8463 17.3733 47.9542C18.272 48.074 19.0867 47.7145 19.6858 47.1754C21.0518 45.9412 22.0103 44.3716 22.897 42.766C22.9689 42.6222 23.0168 42.3466 23.2445 42.4544C23.4482 42.5503 23.2804 42.778 23.2445 42.9337C23.0528 43.8444 22.7532 44.743 22.7652 45.6896C22.7772 46.5523 22.9689 47.3551 23.8076 47.7625C24.6703 48.1818 25.557 48.0261 26.2879 47.4509C27.8815 46.1928 28.217 44.3117 28.5645 42.4664C28.6124 42.3346 28.5645 42.1908 28.3967 42.1309ZM24.3588 37.6856C23.544 40.1419 22.4417 42.4545 20.908 44.5393C20.5006 45.0905 20.0693 45.6057 19.5181 46.0131C18.4158 46.8279 17.613 46.4924 17.4692 45.1504C17.4452 44.9108 17.4452 44.6711 17.4332 44.3835C17.6609 40.8848 18.7632 37.6617 20.884 34.798C21.3274 34.1989 21.8546 33.6836 22.5016 33.3002C23.8915 32.4854 24.91 33.0486 24.9459 34.6542C24.9579 35.6966 24.6943 36.7031 24.3588 37.6856Z" fill="black"/>
<path d="M29.4037 10.8457C29.4037 9.98297 29.4277 9.13225 29.3917 8.26955C29.3798 7.79027 29.5595 7.64648 30.0268 7.64648C31.4287 7.67045 31.237 7.53865 31.237 8.86865C31.237 10.4383 31.2849 12.0199 31.189 13.5895C30.9614 17.0643 28.1217 19.928 24.7907 20.2755C20.8845 20.6709 17.6973 18.1427 16.8226 14.7758C16.6549 14.1407 16.583 13.4817 16.583 12.8227C16.595 11.289 16.595 9.75531 16.583 8.20964C16.583 7.79027 16.7268 7.64648 17.1342 7.64648C18.584 7.67045 18.4163 7.5027 18.4282 8.91657C18.4402 10.4503 18.3683 11.9959 18.4881 13.5177C18.7038 16.3454 21.232 18.5501 24.0478 18.4662C26.9474 18.3823 29.2839 16.0938 29.3917 13.2301C29.4277 12.4513 29.4037 11.6485 29.4037 10.8457Z" fill="black"/>
<path d="M33.1662 16.1186C33.1662 14.525 33.1063 12.9314 33.7054 11.3977C34.8916 8.37821 38.0548 6.44911 41.266 6.80857C44.621 7.19199 47.2929 9.70821 47.7363 12.9673C48.0119 14.9683 47.7962 16.9932 47.8441 19.0062C47.8441 19.2099 47.7842 19.3896 47.5805 19.4136C47.1492 19.4376 46.7058 19.4496 46.2625 19.4136C45.9629 19.3777 46.0229 19.0901 46.0229 18.8744C46.0229 17.4366 46.0229 15.9987 46.0229 14.5609C46.0109 12.2723 45.1362 10.4511 43.1112 9.28884C39.6604 7.31181 35.1432 9.84001 35.0234 13.806C34.9755 15.4596 34.9875 17.1131 35.0114 18.7786C35.0114 19.2578 34.8916 19.4615 34.3764 19.4496C33.0584 19.4016 33.1662 19.6173 33.1662 18.2274C33.1662 17.5085 33.1662 16.8135 33.1662 16.1186Z" fill="black"/>
<path d="M64.1517 7.68193C63.6964 7.64599 63.2171 7.56211 62.7858 7.71788C62.5117 7.82067 62.5621 8.07044 62.5782 8.30958L62.5821 9.22761C62.5941 10.5097 62.5941 11.7798 62.5821 13.0618C62.5581 15.8536 60.2816 18.286 57.5616 18.4537C54.5901 18.6335 52.026 16.5726 51.6785 13.6729C51.4868 12.0673 51.6306 10.4498 51.5946 8.8322C51.5707 7.55013 51.8223 7.66995 50.3485 7.64599C49.9052 7.63401 49.7494 7.80175 49.7614 8.24509C49.7734 9.7668 49.7734 11.2765 49.7614 12.7982C49.7614 13.4812 49.8453 14.1522 50.013 14.8112C50.8278 18.0583 53.9311 20.4308 57.2501 20.3229C60.7608 20.2151 63.7204 17.7588 64.2716 14.3679C64.607 12.271 64.3434 10.1382 64.4033 8.02941C64.4033 7.84968 64.3434 7.69392 64.1517 7.68193Z" fill="black"/>
<path d="M13.5761 45.3063C13.2526 45.1985 13.2167 45.4861 13.1208 45.6538C12.7733 46.217 12.3899 46.7562 11.8987 47.1995C11.4433 47.6069 10.9401 47.9064 10.317 47.9783C9.19074 48.1221 8.4838 47.511 8.42389 46.3727C8.37596 45.4022 8.62758 44.4676 8.86722 43.569C9.49029 41.2205 9.98155 38.8481 10.5567 36.4996C11.2157 33.8156 11.8148 31.1077 12.4379 28.4118C12.6056 27.6809 12.4978 27.5251 11.7549 27.4412C11.5152 27.4173 11.2756 27.3813 11.0479 27.3573C10.8442 27.3334 10.6166 27.3214 10.6046 27.0578C10.5926 26.7822 10.8083 26.6864 11.036 26.6384C11.4433 26.5426 11.8627 26.4827 12.2701 26.3868C12.989 26.2191 13.696 26.0034 14.2951 25.5481C14.4868 25.4043 14.7024 25.2365 14.9421 25.4402C15.1458 25.608 15.026 25.8476 14.978 26.0513C13.6121 31.9105 12.2461 37.7577 10.8802 43.6169C10.7604 44.1321 10.6286 44.6593 10.5327 45.1745C10.4608 45.546 10.377 45.9773 10.7724 46.205C11.2037 46.4566 11.5752 46.193 11.8987 45.9054C12.3899 45.4741 12.7015 44.9109 12.9651 44.3358C13.2526 43.7247 13.4803 43.0897 13.7439 42.4666C13.8397 42.227 13.9955 42.0113 14.2831 42.1191C14.5706 42.227 14.4628 42.4906 14.3909 42.6823C14.1273 43.3892 13.8637 44.0962 13.5881 44.8031C13.5162 44.9828 13.3485 45.1506 13.5881 45.3303L13.5761 45.3063Z" fill="black"/>
<path d="M45.2319 47.9542C44.4171 47.9182 43.3148 47.6906 42.2963 47.1514C41.877 46.9357 41.6972 46.6362 41.8051 46.1329C42.0327 44.9587 42.2125 43.7725 42.4161 42.5982C42.4641 42.3586 42.4641 42.0231 42.8355 42.071C43.171 42.107 43.1231 42.4185 43.1351 42.6342C43.195 43.413 43.147 44.1918 43.3028 44.9587C43.5664 46.2288 44.4411 47.0915 45.6153 47.2113C47.4006 47.391 48.5749 45.9412 48.1675 44.0361C47.9878 43.1973 47.5564 42.4904 47.0532 41.8074C46.2863 40.765 45.4476 39.7825 44.7766 38.6562C44.1895 37.6736 43.9738 36.6192 44.1775 35.4929C44.5609 33.3601 46.4061 31.9942 48.6108 32.1739C49.4735 32.2458 50.3003 32.4375 51.0072 32.9887C51.2948 33.2044 51.4026 33.444 51.3307 33.8154C51.0552 35.0855 50.8035 36.3436 50.5279 37.6137C50.48 37.8294 50.4321 38.093 50.1565 38.093C49.833 38.093 49.821 37.7815 49.809 37.5538C49.7371 36.5593 49.7132 35.5648 49.5215 34.5823C49.2818 33.2882 48.7786 32.809 47.7122 32.8689C46.6218 32.9288 45.7711 33.7675 45.6752 34.8579C45.6034 35.6846 45.843 36.4275 46.2983 37.1105C47.161 38.4045 48.1675 39.6027 48.9703 40.9327C49.7012 42.1429 49.9648 43.449 49.6173 44.8389C49.162 46.72 47.4965 47.9901 45.2319 47.9542Z" fill="black"/>
</svg>
