<svg width="16" height="16" viewBox="0 0 16 16" fill="none" xmlns="http://www.w3.org/2000/svg">
<path d="M6.69157 3.5441L7.12424 4.31939C7.5147 5.01904 7.35797 5.93687 6.74297 6.55186C6.74297 6.55186 5.99709 7.29786 7.3495 8.65032C8.7015 10.0023 9.44797 9.25686 9.44797 9.25686C10.063 8.64186 10.9808 8.48512 11.6804 8.87559L12.4557 9.30826C13.5122 9.89786 13.637 11.3795 12.7084 12.3081C12.1504 12.8661 11.4668 13.3003 10.7111 13.3289C9.43904 13.3772 7.2787 13.0553 5.11164 10.8882C2.94459 8.72112 2.62265 6.5608 2.67087 5.28872C2.69952 4.53306 3.13371 3.84948 3.69171 3.29148C4.62035 2.36284 6.10195 2.48762 6.69157 3.5441Z" stroke="#212D41" stroke-width="0.8" stroke-linecap="round"/>
</svg>
