<svg width="48" height="48" viewBox="0 0 48 48" fill="none" xmlns="http://www.w3.org/2000/svg">
<rect width="48" height="48" rx="24" fill="white"/>
<path d="M27.5777 15.382L29.5777 16.4315C31.7294 17.5607 32.8052 18.1252 33.4026 19.1397C34 20.1542 34 21.4167 34 23.9415V24.0585C34 26.5833 34 27.8458 33.4026 28.8603C32.8052 29.8748 31.7294 30.4393 29.5777 31.5685L27.5777 32.618C25.8221 33.5393 24.9443 34 24 34C23.0557 34 22.1779 33.5393 20.4223 32.618L18.4223 31.5685C16.2706 30.4393 15.1948 29.8748 14.5974 28.8603C14 27.8458 14 26.5833 14 24.0585V23.9415C14 21.4167 14 20.1542 14.5974 19.1397C15.1948 18.1252 16.2706 17.5607 18.4223 16.4315L20.4223 15.382C22.1779 14.4607 23.0557 14 24 14C24.9443 14 25.8221 14.4607 27.5777 15.382Z" stroke="#131313" stroke-width="1.5" stroke-linecap="round"/>
<path d="M33 19.4999L24 23.9999M24 23.9999L15 19.4999M24 23.9999V33.4999" stroke="#131313" stroke-width="1.5" stroke-linecap="round"/>
</svg>
