<svg width="10" height="16" viewBox="0 0 10 16" fill="none" xmlns="http://www.w3.org/2000/svg">
<path d="M3.4575 15.7961C2.64272 15.7601 1.54038 15.5325 0.521911 14.9933C0.102542 14.7776 -0.0771845 14.4781 0.0306532 13.9748C0.258311 12.8006 0.438037 11.6144 0.641731 10.4401C0.689659 10.2005 0.689659 9.86502 1.0611 9.91294C1.3966 9.94889 1.34867 10.2604 1.36065 10.4761C1.42056 11.2549 1.37263 12.0338 1.5284 12.8006C1.792 14.0707 2.66669 14.9334 3.84092 15.0532C5.62623 15.2329 6.80047 13.7831 6.39308 11.878C6.21335 11.0392 5.782 10.3323 5.27876 9.64934C4.51191 8.60691 3.67317 7.62439 3.00218 6.49808C2.41506 5.51556 2.19939 4.46114 2.40308 3.33484C2.78651 1.20205 4.63173 -0.163899 6.83641 0.0158306C7.69912 0.0877225 8.52587 0.279433 9.23281 0.830603C9.52038 1.04628 9.62822 1.28592 9.55632 1.65736C9.28074 2.92745 9.02912 4.18556 8.75353 5.45565C8.7056 5.67132 8.65767 5.93493 8.38209 5.93493C8.05857 5.93493 8.04659 5.62339 8.03461 5.39574C7.96272 4.40123 7.93876 3.40673 7.74704 2.42421C7.50741 1.13015 7.00416 0.650874 5.93777 0.710784C4.84741 0.770694 3.99669 1.60943 3.90083 2.69979C3.82894 3.52655 4.06858 4.26943 4.52389 4.95241C5.3866 6.24646 6.39308 7.44466 7.19587 8.77466C7.92677 9.98483 8.19038 11.2909 7.8429 12.6808C7.38758 14.5619 5.72209 15.832 3.4575 15.7961Z" fill="black"/>
</svg>
