<svg width="82" height="72" viewBox="0 0 82 72" fill="none" xmlns="http://www.w3.org/2000/svg">
<path d="M41.2742 42.9697C38.5249 42.9501 35.8986 42.4143 33.4871 41.4541L41.2742 37.6973V42.9697ZM49.449 41.4238C47.046 42.3911 44.4279 42.9367 41.6863 42.9688V37.708L49.449 41.4238ZM32.989 41.249C30.5359 40.1998 28.3172 38.7074 26.4343 36.8721L30.1394 33.168L32.989 41.249ZM56.4763 36.8223C54.6067 38.6567 52.4033 40.1516 49.9656 41.208L52.7859 33.1309L56.4763 36.8223ZM41.0408 37.3525L33.3591 41.0586L30.5408 33.0674H36.7546L41.0408 37.3525ZM49.5896 41.0342L41.8455 37.3271L46.1062 33.0674H52.3728L49.5896 41.0342ZM41.4304 37.1602L37.3376 33.0674H45.5232L41.4304 37.1602ZM29.8875 32.8369L26.1423 36.582C24.2734 34.6895 22.7532 32.4514 21.6863 29.9727L29.8875 32.8369ZM61.1941 29.9258C60.1356 32.4011 58.6253 34.6375 56.7673 36.5312L53.0378 32.8018L61.1941 29.9258ZM36.3425 32.6553H30.4021V26.7139L36.3425 32.6553ZM52.6003 32.5186L52.5583 32.5342L52.5369 32.5957L52.5154 32.6553H46.5183L52.6003 26.5723V32.5186ZM29.99 26.3018V32.4365L21.865 29.5986L25.5623 21.874L29.99 26.3018ZM61.0496 29.54L53.0125 32.374V26.1602L57.3347 21.8379L61.0496 29.54ZM21.4744 29.4609C20.5179 27.0695 19.9787 24.4657 19.947 21.7402H25.1697L21.4744 29.4609ZM62.9148 21.7402C62.8835 24.4306 62.3571 27.0022 61.4236 29.3682L57.7449 21.7402H62.9148ZM29.99 25.7197L25.7507 21.4805L25.7527 21.4785L25.741 21.4551L29.99 17.207V25.7197ZM57.1267 21.4629L53.0125 25.5771V17.3486L57.1267 21.4629ZM25.2224 21.3281H19.9451C19.9648 18.5765 20.5018 15.9474 21.4636 13.5342L25.2224 21.3281ZM61.3865 13.5088C62.3548 15.929 62.896 18.5664 62.9158 21.3281H57.6433L61.3865 13.5088ZM61.0251 13.3096L57.3123 21.0654L53.0125 16.7656V10.5107L61.0251 13.3096ZM29.99 16.624L25.5515 21.0625L21.8406 13.3672L29.99 10.4941V16.624ZM52.6003 16.3535L46.7029 10.4561H52.6003V16.3535ZM30.4021 16.2119V10.4561H36.158L30.4021 16.2119ZM29.7849 10.1299L21.6921 12.9834C22.7494 10.5323 24.2507 8.31769 26.0935 6.43945L29.7849 10.1299ZM56.8171 6.48926C58.6195 8.33829 60.0916 10.5114 61.1375 12.9121L53.1746 10.1318L56.8171 6.48926ZM41.0369 5.57715L36.5701 10.0449H30.447L33.3005 1.87402L41.0369 5.57715ZM45.7087 10.0449H37.1521L41.4304 5.7666L45.7087 10.0449ZM52.4207 10.0449H46.2908L41.8171 5.57031L49.531 1.84961L52.4207 10.0449ZM49.9314 1.74707C52.4047 2.81372 54.6379 4.33164 56.5271 6.19727L52.8103 9.91309L49.9314 1.74707ZM30.0808 9.84375L26.3845 6.14746C28.2564 4.311 30.4629 2.81435 32.9041 1.75781L30.0808 9.84375ZM41.2742 5.23438L33.4978 1.51172C35.9063 0.554333 38.5288 0.0195654 41.2742 0V5.23438ZM41.6863 0.000976562C44.3787 0.0324155 46.9519 0.559291 49.3191 1.49414L41.6863 5.17578V0.000976562Z" fill="url(#paint0_linear_6_8)"/>
<path d="M81.5684 63.5663H75.0937C75.073 63.5663 75.0627 63.5354 75.0627 63.4736C75.0627 63.4118 75.073 63.3809 75.0937 63.3809C75.4748 63.3809 75.7581 63.3551 75.9436 63.3036C76.129 63.2521 76.2526 63.1491 76.3144 62.9945C76.3865 62.84 76.4226 62.6134 76.4226 62.3146V55.1599C76.4226 54.8611 76.3865 54.6397 76.3144 54.4954C76.2526 54.3409 76.129 54.2379 75.9436 54.1864C75.7581 54.1246 75.4748 54.0937 75.0937 54.0937C75.073 54.0937 75.0627 54.0627 75.0627 54.0009C75.0627 53.9391 75.073 53.9082 75.0937 53.9082H81.3057C81.3984 53.9082 81.4448 53.9546 81.4448 54.0473L81.4757 55.948C81.4757 55.9789 81.4448 55.9995 81.383 56.0098C81.3315 56.0098 81.3057 55.9944 81.3057 55.9635C81.2748 55.4072 81.1048 54.9796 80.7958 54.6809C80.497 54.3821 80.1056 54.2327 79.6214 54.2327H78.6787C78.3285 54.2327 78.0606 54.2585 77.8752 54.31C77.7 54.3615 77.5764 54.4594 77.5043 54.6036C77.4425 54.7478 77.4116 54.959 77.4116 55.2372V62.2528C77.4116 62.5206 77.4425 62.7267 77.5043 62.8709C77.5764 63.0151 77.6949 63.113 77.8597 63.1645C78.0349 63.216 78.2924 63.2418 78.6324 63.2418H79.8686C80.3631 63.2418 80.7752 63.0667 81.1048 62.7164C81.4448 62.3558 81.6663 61.8716 81.7693 61.2638C81.7693 61.2329 81.8002 61.2226 81.862 61.2329C81.9238 61.2432 81.9548 61.2638 81.9548 61.2947C81.9135 61.5626 81.8775 61.8871 81.8466 62.2682C81.826 62.6494 81.8157 63.0048 81.8157 63.3345C81.8157 63.489 81.7333 63.5663 81.5684 63.5663ZM80.7031 59.9658C80.7031 59.5125 80.5897 59.188 80.3631 58.9922C80.1468 58.7965 79.781 58.6986 79.2659 58.6986H76.948V58.3741H79.3123C79.8068 58.3741 80.1571 58.2917 80.3631 58.1269C80.5794 57.9517 80.6876 57.6736 80.6876 57.2924C80.6876 57.2718 80.7185 57.2615 80.7803 57.2615C80.8421 57.2615 80.873 57.2718 80.873 57.2924C80.873 57.6015 80.8679 57.8436 80.8576 58.0187C80.8576 58.1835 80.8576 58.3587 80.8576 58.5441C80.8576 58.781 80.8627 59.0128 80.873 59.2395C80.8834 59.4661 80.8885 59.7082 80.8885 59.9658C80.8885 59.9864 80.8576 59.9967 80.7958 59.9967C80.734 59.9967 80.7031 59.9864 80.7031 59.9658Z" fill="url(#paint1_linear_6_8)"/>
<path d="M65.0552 61.8819V54.2636L65.4106 54.2945V61.8819C65.4106 62.4176 65.5034 62.804 65.6888 63.0409C65.8742 63.2675 66.1833 63.3809 66.616 63.3809C66.6469 63.3809 66.6623 63.4118 66.6623 63.4736C66.6623 63.5354 66.6469 63.5663 66.616 63.5663C66.4099 63.5663 66.1987 63.5611 65.9824 63.5508C65.7661 63.5405 65.524 63.5354 65.2561 63.5354C64.9986 63.5354 64.7513 63.5405 64.5144 63.5508C64.2774 63.5611 64.0508 63.5663 63.8344 63.5663C63.8138 63.5663 63.8035 63.5354 63.8035 63.4736C63.8035 63.4118 63.8138 63.3809 63.8344 63.3809C64.2877 63.3809 64.6019 63.2675 64.7771 63.0409C64.9625 62.804 65.0552 62.4176 65.0552 61.8819ZM72.8435 63.7517C72.8435 63.7723 72.8177 63.7826 72.7662 63.7826C72.7147 63.7929 72.6787 63.7929 72.6581 63.7826L65.5497 55.1754C65.1995 54.753 64.8852 54.4697 64.6071 54.3254C64.3392 54.1709 64.0817 54.0937 63.8344 54.0937C63.8035 54.0937 63.7881 54.0627 63.7881 54.0009C63.7881 53.9391 63.8035 53.9082 63.8344 53.9082C64.0199 53.9082 64.2053 53.9134 64.3908 53.9237C64.5865 53.934 64.7616 53.9391 64.9162 53.9391C65.1016 53.9391 65.2767 53.934 65.4416 53.9237C65.6064 53.9134 65.73 53.9082 65.8124 53.9082C65.9463 53.9082 66.0391 53.97 66.0906 54.0937C66.1421 54.207 66.2915 54.413 66.5387 54.7118L72.7199 62.2992L72.8435 63.7517ZM72.8435 55.608V63.7517L72.4881 63.2727V55.608C72.4881 55.0723 72.3954 54.686 72.2099 54.4491C72.0348 54.2121 71.736 54.0937 71.3137 54.0937C71.2931 54.0937 71.2828 54.0627 71.2828 54.0009C71.2828 53.9391 71.2931 53.9082 71.3137 53.9082C71.5197 53.9082 71.7309 53.9185 71.9472 53.9391C72.1739 53.9494 72.416 53.9546 72.6735 53.9546C72.9208 53.9546 73.1629 53.9494 73.3998 53.9391C73.6471 53.9185 73.8737 53.9082 74.0797 53.9082C74.1106 53.9082 74.1261 53.9391 74.1261 54.0009C74.1261 54.0627 74.1106 54.0937 74.0797 54.0937C73.6367 54.0937 73.3174 54.2121 73.1217 54.4491C72.9362 54.686 72.8435 55.0723 72.8435 55.608Z" fill="url(#paint2_linear_6_8)"/>
<path d="M57.0255 63.7517C56.2838 63.7517 55.609 63.6229 55.0012 63.3654C54.4037 63.0975 53.8886 62.7318 53.4559 62.2682C53.0335 61.8046 52.7039 61.2741 52.4669 60.6766C52.2403 60.0688 52.127 59.4249 52.127 58.745C52.127 57.9105 52.2866 57.1791 52.606 56.5507C52.9357 55.9222 53.3683 55.402 53.904 54.9899C54.4397 54.5675 55.027 54.2533 55.6657 54.0473C56.3044 53.8412 56.938 53.7382 57.5664 53.7382C58.3287 53.7382 59.0087 53.8773 59.6062 54.1554C60.214 54.4233 60.7291 54.789 61.1515 55.2526C61.5738 55.7162 61.8932 56.2416 62.1095 56.8288C62.3362 57.416 62.4495 58.0187 62.4495 58.6368C62.4495 59.3579 62.3053 60.0276 62.0168 60.6457C61.7284 61.2638 61.3317 61.8046 60.8269 62.2682C60.3325 62.7318 59.7555 63.0975 59.0962 63.3654C58.4472 63.6229 57.757 63.7517 57.0255 63.7517ZM57.5664 63.4272C58.2669 63.4272 58.8953 63.2624 59.4516 62.9327C60.0079 62.5927 60.4509 62.0983 60.7806 61.4492C61.1102 60.8002 61.2751 60.007 61.2751 59.0695C61.2751 58.1011 61.0948 57.246 60.7342 56.5043C60.384 55.7523 59.8792 55.165 59.2198 54.7427C58.5708 54.31 57.8033 54.0936 56.9174 54.0936C55.7738 54.0936 54.8827 54.4645 54.244 55.2062C53.6156 55.9377 53.3014 56.937 53.3014 58.2041C53.3014 58.9356 53.3992 59.6206 53.595 60.2594C53.801 60.8878 54.0946 61.4441 54.4758 61.9283C54.857 62.4022 55.3103 62.773 55.8357 63.0409C56.3611 63.2984 56.938 63.4272 57.5664 63.4272Z" fill="url(#paint3_linear_6_8)"/>
<path d="M44.6783 54.1864C44.0396 54.1864 43.5554 54.3513 43.2257 54.6809C42.9064 55.0106 42.6746 55.572 42.5303 56.3653C42.5303 56.3859 42.4994 56.3962 42.4376 56.3962C42.3861 56.3962 42.3604 56.3859 42.3604 56.3653C42.381 56.2314 42.4016 56.0459 42.4222 55.809C42.4428 55.5617 42.4634 55.299 42.484 55.0209C42.5149 54.7427 42.5355 54.4749 42.5458 54.2173C42.5664 53.9495 42.5767 53.7331 42.5767 53.5683C42.5767 53.5168 42.6024 53.4911 42.654 53.4911C42.7158 53.4911 42.7467 53.5168 42.7467 53.5683C42.7467 53.6713 42.7982 53.7486 42.9012 53.8001C43.0042 53.8413 43.1175 53.8722 43.2412 53.8928C43.3751 53.9031 43.4884 53.9083 43.5811 53.9083C44.4671 53.9392 45.5024 53.9546 46.6872 53.9546C47.4186 53.9546 47.9955 53.9495 48.4179 53.9392C48.8506 53.9186 49.2678 53.9083 49.6696 53.9083C50.0199 53.9083 50.2877 53.8877 50.4731 53.8465C50.6689 53.795 50.7925 53.6868 50.844 53.522C50.8543 53.4807 50.8852 53.4601 50.9367 53.4601C50.9882 53.4601 51.014 53.4807 51.014 53.522C51.0037 53.6765 50.9882 53.8877 50.9676 54.1555C50.947 54.4234 50.9316 54.7015 50.9213 54.99C50.911 55.2784 50.9007 55.5463 50.8904 55.7935C50.8801 56.0408 50.8749 56.2314 50.8749 56.3653C50.8749 56.3859 50.844 56.3962 50.7822 56.3962C50.7204 56.3962 50.6895 56.3859 50.6895 56.3653C50.6586 55.5617 50.4937 55.0003 50.195 54.6809C49.8962 54.3513 49.4017 54.1864 48.7115 54.1864C48.2788 54.1864 47.9543 54.207 47.738 54.2482C47.5216 54.2895 47.3774 54.3822 47.3053 54.5264C47.2435 54.6603 47.2126 54.8818 47.2126 55.1909V62.3147C47.2126 62.6134 47.2486 62.8401 47.3207 62.9946C47.3929 63.1491 47.5319 63.2521 47.738 63.3037C47.9543 63.3552 48.2788 63.3809 48.7115 63.3809C48.7424 63.3809 48.7579 63.4118 48.7579 63.4736C48.7579 63.5355 48.7424 63.5664 48.7115 63.5664C48.4437 63.5664 48.1397 63.5612 47.7998 63.5509C47.4598 63.5406 47.0889 63.5355 46.6872 63.5355C46.306 63.5355 45.9454 63.5406 45.6055 63.5509C45.2655 63.5612 44.9564 63.5664 44.6783 63.5664C44.6577 63.5664 44.6474 63.5355 44.6474 63.4736C44.6474 63.4118 44.6577 63.3809 44.6783 63.3809C45.1007 63.3809 45.42 63.3552 45.6364 63.3037C45.863 63.2521 46.0124 63.1491 46.0845 62.9946C46.1566 62.8401 46.1927 62.6134 46.1927 62.3147V55.16C46.1927 54.8509 46.1566 54.6294 46.0845 54.4955C46.0124 54.3513 45.8682 54.2637 45.6518 54.2328C45.4355 54.2019 45.111 54.1864 44.6783 54.1864Z" fill="url(#paint4_linear_6_8)"/>
<path d="M36.4232 55.7162C36.4232 56.1386 36.5262 56.5043 36.7322 56.8134C36.9486 57.1121 37.2216 57.3748 37.5512 57.6015C37.8809 57.8281 38.2312 58.0547 38.602 58.2814C38.9832 58.4977 39.3489 58.7295 39.6992 58.9768C40.0598 59.224 40.3534 59.5176 40.58 59.8576C40.8169 60.1975 40.9354 60.6148 40.9354 61.1093C40.9354 61.6038 40.8118 62.0519 40.5645 62.4537C40.3173 62.8451 39.9567 63.1594 39.4828 63.3963C39.0193 63.6332 38.4423 63.7517 37.7521 63.7517C37.5049 63.7517 37.2576 63.7311 37.0104 63.6899C36.7734 63.659 36.5313 63.6023 36.2841 63.5199C36.0471 63.4375 35.8102 63.3345 35.5733 63.2109C35.5217 63.18 35.4857 63.1439 35.4651 63.1027C35.4548 63.0512 35.4445 62.9894 35.4342 62.9173L35.2333 60.8157C35.223 60.7642 35.2436 60.7384 35.2951 60.7384C35.3569 60.7281 35.393 60.7435 35.4033 60.7848C35.4754 61.0938 35.5784 61.408 35.7123 61.7274C35.8463 62.0467 36.0214 62.3404 36.2377 62.6082C36.4541 62.8761 36.7168 63.0924 37.0258 63.2572C37.3349 63.4221 37.6955 63.5045 38.1075 63.5045C38.4063 63.5045 38.6947 63.4478 38.9729 63.3345C39.2614 63.2212 39.4931 63.0357 39.6683 62.7782C39.8537 62.5206 39.9464 62.1704 39.9464 61.7274C39.9464 61.2226 39.8331 60.8054 39.6065 60.4757C39.3901 60.1357 39.112 59.8421 38.772 59.5949C38.432 59.3476 38.0715 59.1158 37.6903 58.8995C37.3297 58.6729 36.9795 58.4411 36.6395 58.2041C36.3098 57.9672 36.0368 57.689 35.8205 57.3697C35.6145 57.04 35.5114 56.6331 35.5114 56.1489C35.5114 55.6029 35.6505 55.1547 35.9287 54.8045C36.2068 54.4439 36.5674 54.1761 37.0104 54.0009C37.4534 53.8258 37.9118 53.7382 38.3857 53.7382C38.6741 53.7382 38.9729 53.7691 39.282 53.8309C39.591 53.8824 39.8949 53.9752 40.1937 54.1091C40.2761 54.14 40.3328 54.1812 40.3637 54.2327C40.4049 54.2739 40.4255 54.3203 40.4255 54.3718L40.5336 56.1334C40.5336 56.1746 40.5079 56.2004 40.4564 56.2107C40.4049 56.2107 40.3688 56.1901 40.3482 56.1489C40.3276 55.9428 40.2709 55.7162 40.1782 55.4689C40.0855 55.2114 39.9516 54.9693 39.7764 54.7427C39.6013 54.516 39.3798 54.3306 39.112 54.1864C38.8441 54.0421 38.5196 53.97 38.1384 53.97C37.7367 53.97 37.407 54.0576 37.1495 54.2327C36.9022 54.3975 36.7168 54.6139 36.5931 54.8817C36.4798 55.1393 36.4232 55.4174 36.4232 55.7162Z" fill="url(#paint5_linear_6_8)"/>
<path d="M32.1252 62.3146C32.1252 62.6134 32.1561 62.84 32.2179 62.9945C32.2797 63.1491 32.4033 63.2521 32.5888 63.3036C32.7845 63.3551 33.0678 63.3809 33.4387 63.3809C33.4696 63.3809 33.485 63.4118 33.485 63.4736C33.485 63.5354 33.4696 63.5663 33.4387 63.5663C33.1914 63.5663 32.9133 63.5611 32.6042 63.5508C32.3055 63.5405 31.9707 63.5354 31.5998 63.5354C31.2598 63.5354 30.9302 63.5405 30.6108 63.5508C30.3017 63.5611 30.0236 63.5663 29.7763 63.5663C29.7454 63.5663 29.73 63.5354 29.73 63.4736C29.73 63.4118 29.7454 63.3809 29.7763 63.3809C30.1472 63.3809 30.4305 63.3551 30.6262 63.3036C30.822 63.2521 30.9508 63.1491 31.0126 62.9945C31.0744 62.84 31.1053 62.6134 31.1053 62.3146V55.1599C31.1053 54.8611 31.0744 54.6397 31.0126 54.4954C30.9508 54.3409 30.822 54.2379 30.6262 54.1864C30.4305 54.1246 30.1472 54.0937 29.7763 54.0937C29.7454 54.0937 29.73 54.0627 29.73 54.0009C29.73 53.9391 29.7454 53.9082 29.7763 53.9082C30.0236 53.9082 30.3017 53.9185 30.6108 53.9391C30.9302 53.9494 31.2598 53.9546 31.5998 53.9546C31.9707 53.9546 32.3106 53.9494 32.6197 53.9391C32.9287 53.9185 33.2017 53.9082 33.4387 53.9082C33.4696 53.9082 33.485 53.9391 33.485 54.0009C33.485 54.0627 33.4696 54.0937 33.4387 54.0937C33.0678 54.0937 32.7845 54.1246 32.5888 54.1864C32.4033 54.2482 32.2797 54.3564 32.2179 54.5109C32.1561 54.6654 32.1252 54.8921 32.1252 55.1908V62.3146Z" fill="url(#paint6_linear_6_8)"/>
<path d="M27.2147 63.5667C27.0396 63.5667 26.7563 63.3606 26.3648 62.9485C25.9836 62.5365 25.5149 61.9493 24.9586 61.1869C24.4126 60.4143 23.7996 59.4974 23.1197 58.4363L23.985 58.1581C24.8607 59.4562 25.6024 60.4864 26.2103 61.2487C26.8284 62.0008 27.3692 62.5468 27.8328 62.8867C28.3067 63.2164 28.76 63.3812 29.1927 63.3812C29.2236 63.3812 29.239 63.4121 29.239 63.4739C29.239 63.5358 29.2236 63.5667 29.1927 63.5667C28.6776 63.5667 28.2552 63.5667 27.9255 63.5667C27.6062 63.5667 27.3692 63.5667 27.2147 63.5667ZM23.0115 53.8622C23.8563 53.8622 24.5001 54.0374 24.9431 54.3876C25.3964 54.7276 25.6231 55.1963 25.6231 55.7938C25.6231 56.1853 25.5355 56.5562 25.3604 56.9065C25.1852 57.2464 24.9483 57.5503 24.6495 57.8182C24.3508 58.0757 24.0005 58.2818 23.5987 58.4363C23.2072 58.5908 22.7952 58.6681 22.3625 58.6681C22.2595 58.6681 22.141 58.6681 22.0071 58.6681C21.8834 58.6578 21.7701 58.6475 21.6671 58.6372V62.315C21.6671 62.6137 21.6929 62.8404 21.7444 62.9949C21.8062 63.1494 21.9298 63.2525 22.1152 63.304C22.311 63.3555 22.5994 63.3812 22.9806 63.3812C23.0115 63.3812 23.027 63.4121 23.027 63.4739C23.027 63.5358 23.0115 63.5667 22.9806 63.5667C22.7334 63.5667 22.4552 63.5615 22.1461 63.5512C21.8474 63.5409 21.5177 63.5358 21.1572 63.5358C20.8172 63.5358 20.4875 63.5409 20.1682 63.5512C19.8591 63.5615 19.5758 63.5667 19.3183 63.5667C19.2977 63.5667 19.2874 63.5358 19.2874 63.4739C19.2874 63.4121 19.2977 63.3812 19.3183 63.3812C19.6994 63.3812 19.9827 63.3555 20.1682 63.304C20.3639 63.2525 20.4978 63.1494 20.5699 62.9949C20.6421 62.8404 20.6781 62.6137 20.6781 62.315V55.1603C20.6781 54.8615 20.6421 54.64 20.5699 54.4958C20.5081 54.3413 20.3845 54.2382 20.1991 54.1867C20.0136 54.1249 19.7303 54.094 19.3492 54.094C19.3183 54.094 19.3028 54.0631 19.3028 54.0013C19.3028 53.9395 19.3183 53.9086 19.3492 53.9086C19.5964 53.9086 19.8746 53.9189 20.1836 53.9395C20.4927 53.9498 20.8172 53.9549 21.1572 53.9549C21.425 53.9549 21.7392 53.9395 22.0998 53.9086C22.4604 53.8777 22.7643 53.8622 23.0115 53.8622ZM24.5723 56.3347C24.5723 55.7681 24.4847 55.3251 24.3096 55.0057C24.1447 54.6761 23.9232 54.4443 23.6451 54.3104C23.3669 54.1661 23.0476 54.094 22.687 54.094C22.4397 54.094 22.2389 54.1146 22.0843 54.1558C21.9298 54.197 21.8216 54.2949 21.7598 54.4494C21.698 54.604 21.6671 54.8512 21.6671 55.1912V58.2509C21.8113 58.2715 21.9659 58.2869 22.1307 58.2972C22.2955 58.3075 22.4449 58.3127 22.5788 58.3127C23.2897 58.3127 23.7996 58.1633 24.1087 57.8645C24.4177 57.5555 24.5723 57.0455 24.5723 56.3347Z" fill="url(#paint7_linear_6_8)"/>
<path d="M17.4937 63.5663H11.0189C10.9983 63.5663 10.988 63.5354 10.988 63.4736C10.988 63.4118 10.9983 63.3809 11.0189 63.3809C11.4001 63.3809 11.6834 63.3551 11.8689 63.3036C12.0543 63.2521 12.1779 63.1491 12.2397 62.9945C12.3118 62.84 12.3479 62.6134 12.3479 62.3146V55.1599C12.3479 54.8611 12.3118 54.6397 12.2397 54.4954C12.1779 54.3409 12.0543 54.2379 11.8689 54.1864C11.6834 54.1246 11.4001 54.0937 11.0189 54.0937C10.9983 54.0937 10.988 54.0627 10.988 54.0009C10.988 53.9391 10.9983 53.9082 11.0189 53.9082H17.231C17.3237 53.9082 17.3701 53.9546 17.3701 54.0473L17.401 55.948C17.401 55.9789 17.3701 55.9995 17.3083 56.0098C17.2568 56.0098 17.231 55.9944 17.231 55.9635C17.2001 55.4072 17.0301 54.9796 16.7211 54.6809C16.4223 54.3821 16.0308 54.2327 15.5466 54.2327H14.604C14.2538 54.2327 13.9859 54.2585 13.8005 54.31C13.6253 54.3615 13.5017 54.4594 13.4296 54.6036C13.3678 54.7478 13.3369 54.959 13.3369 55.2372V62.2528C13.3369 62.5206 13.3678 62.7267 13.4296 62.8709C13.5017 63.0151 13.6202 63.113 13.785 63.1645C13.9601 63.216 14.2177 63.2418 14.5577 63.2418H15.7939C16.2884 63.2418 16.7005 63.0667 17.0301 62.7164C17.3701 62.3558 17.5916 61.8716 17.6946 61.2638C17.6946 61.2329 17.7255 61.2226 17.7873 61.2329C17.8491 61.2432 17.88 61.2638 17.88 61.2947C17.8388 61.5626 17.8028 61.8871 17.7719 62.2682C17.7513 62.6494 17.741 63.0048 17.741 63.3345C17.741 63.489 17.6585 63.5663 17.4937 63.5663ZM16.6284 59.9658C16.6284 59.5125 16.515 59.188 16.2884 58.9922C16.072 58.7965 15.7063 58.6986 15.1912 58.6986H12.8733V58.3741H15.2376C15.7321 58.3741 16.0824 58.2917 16.2884 58.1269C16.5047 57.9517 16.6129 57.6736 16.6129 57.2924C16.6129 57.2718 16.6438 57.2615 16.7056 57.2615C16.7674 57.2615 16.7983 57.2718 16.7983 57.2924C16.7983 57.6015 16.7932 57.8436 16.7829 58.0187C16.7829 58.1835 16.7829 58.3587 16.7829 58.5441C16.7829 58.781 16.788 59.0128 16.7983 59.2395C16.8086 59.4661 16.8138 59.7082 16.8138 59.9658C16.8138 59.9864 16.7829 59.9967 16.7211 59.9967C16.6593 59.9967 16.6284 59.9864 16.6284 59.9658Z" fill="url(#paint8_linear_6_8)"/>
<path d="M10.4006 53.9082C10.4315 53.9082 10.4469 53.9391 10.4469 54.0009C10.4469 54.0627 10.4315 54.0937 10.4006 54.0937C10.0709 54.0937 9.77213 54.1812 9.50428 54.3564C9.24673 54.5315 9.02524 54.8508 8.83981 55.3144L5.54833 63.5508C5.53803 63.5921 5.48137 63.6127 5.37835 63.6127C5.28563 63.6127 5.22897 63.5921 5.20837 63.5508L1.36059 55.1908C1.18546 54.7993 1.00002 54.5212 0.804285 54.3564C0.618849 54.1812 0.366452 54.0937 0.0470912 54.0937C0.0161854 54.0937 0.000732422 54.0627 0.000732422 54.0009C0.000732422 53.9391 0.0161854 53.9082 0.0470912 53.9082C0.191319 53.9082 0.330395 53.9134 0.46432 53.9237C0.598246 53.934 0.737322 53.9443 0.881549 53.9546C1.02578 53.9546 1.17515 53.9546 1.32968 53.9546C1.63874 53.9546 1.91174 53.9546 2.14869 53.9546C2.38563 53.9443 2.59682 53.934 2.78226 53.9237C2.96769 53.9134 3.13768 53.9082 3.29221 53.9082C3.32311 53.9082 3.33856 53.9391 3.33856 54.0009C3.33856 54.0627 3.32311 54.0937 3.29221 54.0937C2.89043 54.0937 2.60713 54.1709 2.4423 54.3254C2.28777 54.48 2.29807 54.7478 2.4732 55.129L5.81103 62.4382L5.33199 63.1491L8.48439 55.2217C8.63892 54.8405 8.63892 54.5572 8.48439 54.3718C8.32986 54.1864 7.96929 54.0937 7.40268 54.0937C7.37178 54.0937 7.35633 54.0627 7.35633 54.0009C7.35633 53.9391 7.37178 53.9082 7.40268 53.9082C7.66023 53.9082 7.90233 53.9185 8.12897 53.9391C8.35562 53.9494 8.65437 53.9546 9.02524 53.9546C9.324 53.9546 9.56094 53.9494 9.73608 53.9391C9.92151 53.9185 10.143 53.9082 10.4006 53.9082Z" fill="url(#paint9_linear_6_8)"/>
<path d="M62.684 69.0502H63.0136V71.9535H62.684V70.6307H60.9725V71.9535H60.6428V69.0502H60.9725V70.318H62.684V69.0502Z" fill="#BE8464"/>
<path d="M58.5395 71.9535V69.3629H57.5632V69.0502H59.8453V69.3629H58.8691V71.9535H58.5395Z" fill="#BE8464"/>
<path d="M55.4905 71.6408H57.0753V71.9535H55.1609V69.0502H55.4905V71.6408Z" fill="#BE8464"/>
<path d="M54.1066 71.9535L53.815 71.2942H52.1965L51.9049 71.9535H51.5457L52.8261 69.0502H53.1854L54.4659 71.9535H54.1066ZM52.3317 70.9815H53.6798L53.0079 69.4559L52.3317 70.9815Z" fill="#BE8464"/>
<path d="M50.9045 69.3629H49.1549V70.318H50.7312V70.6307H49.1549V71.6408H50.9045V71.9535H48.821V69.0502H50.9045V69.3629Z" fill="#BE8464"/>
<path d="M44.7961 71.9535L43.803 69.0502H44.1749L44.9778 71.3999L45.747 69.0502H46.1146L46.8838 71.3999L47.6867 69.0502H48.0586L47.0655 71.9535H46.7401L45.9329 69.4813L45.1215 71.9535H44.7961Z" fill="#BE8464"/>
<path d="M40.624 72C40.1465 72 39.7704 71.8267 39.4788 71.5393L39.6858 71.2815C39.9309 71.5266 40.231 71.6999 40.6367 71.6999C41.0847 71.6999 41.3129 71.4548 41.3129 71.1928C41.3129 70.8843 41.0382 70.7617 40.531 70.6434C39.9479 70.5082 39.5802 70.3264 39.5802 69.8235C39.5802 69.3587 39.9943 68.9952 40.5522 68.9952C40.9832 68.9952 41.3044 69.1643 41.5707 69.4094L41.3678 69.6672C41.1269 69.4347 40.8396 69.2953 40.5353 69.2953C40.1761 69.2953 39.914 69.5319 39.914 69.7982C39.914 70.0982 40.2014 70.2039 40.6959 70.3222C41.2495 70.4532 41.6467 70.6518 41.6467 71.1632C41.6467 71.6238 41.3002 72 40.624 72Z" fill="#BE8464"/>
<path d="M37.7588 72C37.2812 72 36.9051 71.8267 36.6135 71.5393L36.8206 71.2815C37.0657 71.5266 37.3658 71.6999 37.7715 71.6999C38.2194 71.6999 38.4476 71.4548 38.4476 71.1928C38.4476 70.8843 38.1729 70.7617 37.6658 70.6434C37.0826 70.5082 36.7149 70.3264 36.7149 69.8235C36.7149 69.3587 37.1291 68.9952 37.6869 68.9952C38.118 68.9952 38.4392 69.1643 38.7054 69.4094L38.5026 69.6672C38.2617 69.4347 37.9743 69.2953 37.67 69.2953C37.3108 69.2953 37.0488 69.5319 37.0488 69.7982C37.0488 70.0982 37.3362 70.2039 37.8306 70.3222C38.3842 70.4532 38.7815 70.6518 38.7815 71.1632C38.7815 71.6238 38.435 72 37.7588 72Z" fill="#BE8464"/>
<path d="M35.9162 69.3629H34.1666V70.318H35.7429V70.6307H34.1666V71.6408H35.9162V71.9535H33.8328V69.0502H35.9162V69.3629Z" fill="#BE8464"/>
<path d="M31.4986 71.6408H33.0834V71.9535H31.1689V69.0502H31.4986V71.6408Z" fill="#BE8464"/>
<path d="M30.3767 69.3629H28.6271V70.318H30.2034V70.6307H28.6271V71.6408H30.3767V71.9535H28.2932V69.0502H30.3767V69.3629Z" fill="#BE8464"/>
<path d="M24.4775 71.9535V69.0502H24.8072L25.8848 71.0745L26.9625 69.0502H27.2921V71.9535H26.9625V69.7602L25.8848 71.7845L24.8072 69.7602V71.9535H24.4775Z" fill="#BE8464"/>
<path d="M23.1416 71.9535V69.0502H23.4712V71.9535H23.1416Z" fill="#BE8464"/>
<path d="M21.0395 71.9535V69.3629H20.0632V69.0502H22.3453V69.3629H21.3691V71.9535H21.0395Z" fill="#BE8464"/>
<defs>
<linearGradient id="paint0_linear_6_8" x1="58.8291" y1="3.28502" x2="40.8561" y2="46.6281" gradientUnits="userSpaceOnUse">
<stop stop-color="#E69868"/>
<stop offset="1" stop-color="#9D5531"/>
</linearGradient>
<linearGradient id="paint1_linear_6_8" x1="81.9702" y1="53.9242" x2="74.7783" y2="63.9367" gradientUnits="userSpaceOnUse">
<stop stop-color="#E69868"/>
<stop offset="1" stop-color="#9D5430"/>
</linearGradient>
<linearGradient id="paint2_linear_6_8" x1="74.1493" y1="53.9246" x2="68.0129" y2="66.4485" gradientUnits="userSpaceOnUse">
<stop stop-color="#E69868"/>
<stop offset="1" stop-color="#9D5430"/>
</linearGradient>
<linearGradient id="paint3_linear_6_8" x1="62.4727" y1="53.7548" x2="56.1989" y2="66.3723" gradientUnits="userSpaceOnUse">
<stop stop-color="#E69868"/>
<stop offset="1" stop-color="#9D5430"/>
</linearGradient>
<linearGradient id="paint4_linear_6_8" x1="51.0334" y1="53.4768" x2="44.034" y2="65.1696" gradientUnits="userSpaceOnUse">
<stop stop-color="#E69868"/>
<stop offset="1" stop-color="#9D5430"/>
</linearGradient>
<linearGradient id="paint5_linear_6_8" x1="40.9482" y1="53.7548" x2="33.1234" y2="62.4516" gradientUnits="userSpaceOnUse">
<stop stop-color="#E69868"/>
<stop offset="1" stop-color="#9D5430"/>
</linearGradient>
<linearGradient id="paint6_linear_6_8" x1="33.4935" y1="53.9242" x2="26.1852" y2="59.4677" gradientUnits="userSpaceOnUse">
<stop stop-color="#E69868"/>
<stop offset="1" stop-color="#9D5430"/>
</linearGradient>
<linearGradient id="paint7_linear_6_8" x1="29.2614" y1="53.8783" x2="23.162" y2="66.0808" gradientUnits="userSpaceOnUse">
<stop stop-color="#E69868"/>
<stop offset="1" stop-color="#9D5430"/>
</linearGradient>
<linearGradient id="paint8_linear_6_8" x1="17.8955" y1="53.9242" x2="10.7036" y2="63.9367" gradientUnits="userSpaceOnUse">
<stop stop-color="#E69868"/>
<stop offset="1" stop-color="#9D5430"/>
</linearGradient>
<linearGradient id="paint9_linear_6_8" x1="10.4704" y1="53.9243" x2="4.55036" y2="66.3566" gradientUnits="userSpaceOnUse">
<stop stop-color="#E69868"/>
<stop offset="1" stop-color="#9D5430"/>
</linearGradient>
</defs>
</svg>
